<svg aria-hidden="true" style="position: absolute; width: 0; height: 0; overflow: hidden;" version="1.1" xmlns="http://www.w3.org/2000/svg" xmlns:xlink="http://www.w3.org/1999/xlink">
<defs>
    <symbol id="icon-smartphone" viewBox="0 0 21 32">
        <path d="M18.133 0h-14.933c-1.765 0-3.2 1.34-3.2 2.987v25.889c0 1.647 1.435 2.987 3.2 2.987h14.933c1.765 0 3.2-1.34 3.2-2.987v-25.889c0-1.647-1.435-2.987-3.2-2.987zM3.2 1.991h14.933c0.589 0 1.067 0.446 1.067 0.996v20.91h-17.067v-20.91c0-0.549 0.478-0.996 1.067-0.996zM18.133 29.872h-14.933c-0.589 0-1.067-0.446-1.067-0.996v-2.987h17.067v2.987c0 0.55-0.478 0.996-1.067 0.996z"></path>
        <path d="M5.021 27.176c0.417 0.389 0.417 1.020 0 1.409s-1.092 0.389-1.508 0c-0.417-0.389-0.417-1.020 0-1.409s1.092-0.389 1.508 0z"></path>
    </symbol>
    <symbol id="icon-linkedin-copy" viewBox="0 0 32 32">
        <path d="M31.992 32h0.008v-11.738c0-5.741-1.235-10.163-7.947-10.163-3.227 0-5.392 1.77-6.277 3.45h-0.093v-2.914h-6.365v21.363h6.627v-10.578c0-2.786 0.528-5.48 3.978-5.48 3.398 0 3.45 3.179 3.45 5.658v10.402h6.619zM0.528 10.635h6.635v21.365h-6.635v-21.365zM3.843 0c-2.123 0-3.843 1.721-3.843 3.843v0c0 2.12 1.722 3.878 3.843 3.878 2.12 0 3.842-1.757 3.842-3.878s-1.72-3.841-3.841-3.843h-0z"></path>
    </symbol>
    <symbol id="icon-envelope" viewBox="0 0 43 32">
        <path d="M38.667 0h-34.667c-2.206 0-4 1.675-4 3.734v22.404c0 2.059 1.794 3.734 4 3.734h34.667c2.206 0 4-1.675 4-3.734v-22.404c0-2.059-1.794-3.734-4-3.734zM38.667 2.489c0.181 0 0.353 0.035 0.511 0.096l-17.844 14.437-17.844-14.437c0.158-0.061 0.33-0.096 0.511-0.096h34.667zM38.667 27.383h-34.667c-0.736 0-1.333-0.558-1.333-1.245v-20.922l17.793 14.395c0.251 0.203 0.563 0.304 0.874 0.304s0.622-0.101 0.874-0.304l17.793-14.395v20.922c0 0.687-0.598 1.245-1.333 1.245z"></path>
    </symbol>
<symbol id="icon-rs_school_js" viewBox="0 0 86 32">
<path fill="#000" style="fill: var(--color1, #000)" d="M44.485 10.599l4.099-0.265c0.094 0.67 0.265 1.169 0.546 1.528 0.452 0.561 1.075 0.842 1.902 0.842 0.608 0 1.091-0.14 1.418-0.436 0.312-0.234 0.499-0.608 0.499-0.998 0-0.374-0.171-0.733-0.468-0.966-0.312-0.281-1.044-0.561-2.198-0.811-1.886-0.421-3.242-0.982-4.037-1.699-0.795-0.67-1.247-1.652-1.216-2.697 0-0.717 0.218-1.434 0.623-2.026 0.468-0.67 1.107-1.2 1.87-1.496 0.826-0.359 1.98-0.546 3.429-0.546 1.777 0 3.133 0.327 4.068 0.998 0.935 0.655 1.496 1.715 1.668 3.164l-4.053 0.234c-0.109-0.623-0.327-1.075-0.686-1.372s-0.826-0.436-1.434-0.436c-0.499 0-0.873 0.109-1.122 0.312-0.234 0.187-0.39 0.468-0.374 0.779 0 0.234 0.125 0.452 0.312 0.592 0.203 0.187 0.686 0.359 1.45 0.514 1.886 0.405 3.227 0.811 4.053 1.231s1.418 0.935 1.777 1.543c0.374 0.623 0.561 1.34 0.546 2.073 0 0.873-0.249 1.746-0.748 2.478-0.514 0.764-1.231 1.356-2.073 1.715-0.888 0.39-2.011 0.592-3.351 0.592-2.369 0-4.006-0.452-4.925-1.372s-1.465-2.073-1.574-3.476zM0.982 15.213v-13.935h7.186c1.325 0 2.354 0.109 3.055 0.343 0.686 0.218 1.294 0.67 1.699 1.278 0.452 0.67 0.67 1.45 0.655 2.26 0.047 1.372-0.655 2.681-1.855 3.367-0.468 0.265-0.982 0.452-1.512 0.546 0.39 0.109 0.779 0.296 1.122 0.514 0.265 0.218 0.483 0.468 0.686 0.733 0.234 0.265 0.436 0.561 0.608 0.873l2.089 4.037h-4.894l-2.307-4.286c-0.296-0.546-0.546-0.904-0.779-1.075-0.312-0.218-0.686-0.327-1.060-0.327h-0.374v5.658h-4.318zM5.3 6.921h1.824c0.39-0.031 0.764-0.094 1.138-0.187 0.281-0.047 0.53-0.203 0.701-0.436 0.421-0.561 0.358-1.356-0.156-1.839-0.281-0.234-0.826-0.359-1.605-0.359h-1.902v2.821zM0 27.152l4.099-0.265c0.094 0.67 0.265 1.169 0.546 1.528 0.436 0.561 1.075 0.857 1.902 0.857 0.608 0 1.091-0.14 1.418-0.436 0.312-0.249 0.499-0.608 0.499-0.998 0-0.374-0.171-0.733-0.468-0.966-0.312-0.281-1.044-0.561-2.213-0.811-1.886-0.421-3.242-0.982-4.037-1.699-0.795-0.67-1.247-1.652-1.216-2.697 0-0.717 0.218-1.434 0.623-2.026 0.468-0.67 1.107-1.2 1.87-1.496 0.826-0.358 1.98-0.546 3.429-0.546 1.777 0 3.133 0.327 4.068 0.998s1.481 1.715 1.652 3.164l-4.053 0.234c-0.109-0.623-0.327-1.076-0.686-1.372-0.343-0.296-0.826-0.436-1.434-0.421-0.499 0-0.873 0.109-1.122 0.327-0.249 0.187-0.39 0.468-0.374 0.779 0 0.234 0.125 0.452 0.312 0.592 0.203 0.187 0.686 0.358 1.45 0.514 1.886 0.405 3.227 0.811 4.053 1.231s1.418 0.935 1.777 1.543c0.374 0.623 0.561 1.34 0.561 2.057 0 0.873-0.265 1.73-0.748 2.463-0.514 0.764-1.231 1.356-2.073 1.715-0.888 0.39-2.011 0.592-3.351 0.592-2.369 0-4.006-0.452-4.925-1.372-0.92-0.935-1.434-2.089-1.559-3.491z"></path>
<path fill="#000" style="fill: var(--color1, #000)" d="M20.731 26.061l3.772 1.138c-0.203 0.951-0.623 1.855-1.2 2.65-0.53 0.701-1.231 1.247-2.026 1.605-0.811 0.358-1.839 0.546-3.086 0.546-1.512 0-2.759-0.218-3.71-0.655-0.966-0.436-1.793-1.216-2.494-2.322s-1.044-2.525-1.044-4.255c0-2.307 0.608-4.084 1.839-5.315s2.962-1.855 5.206-1.855c1.761 0 3.133 0.358 4.146 1.060 0.998 0.717 1.746 1.808 2.245 3.273l-3.803 0.842c-0.094-0.327-0.234-0.655-0.421-0.935-0.234-0.327-0.53-0.577-0.888-0.764s-0.764-0.265-1.169-0.265c-0.982 0-1.73 0.39-2.245 1.185-0.39 0.577-0.592 1.496-0.592 2.743 0 1.543 0.234 2.603 0.701 3.18s1.122 0.857 1.98 0.857c0.826 0 1.45-0.234 1.87-0.686 0.421-0.483 0.733-1.153 0.92-2.026zM29.537 17.831h4.302v4.879h4.707v-4.879h4.333v13.935h-4.333v-5.642h-4.707v5.642h-4.302v-13.935z"></path>
<path fill="#000" style="fill: var(--color1, #000)" d="M42.287 24.799c0-2.276 0.639-4.053 1.902-5.315s3.039-1.902 5.3-1.902c2.322 0 4.099 0.623 5.362 1.87s1.886 2.993 1.886 5.237c0 1.637-0.281 2.962-0.826 4.006-0.53 1.029-1.356 1.87-2.369 2.432-1.044 0.577-2.338 0.873-3.881 0.873-1.574 0-2.868-0.249-3.897-0.748-1.060-0.53-1.933-1.356-2.51-2.369-0.639-1.091-0.966-2.447-0.966-4.084zM46.589 24.814c0 1.403 0.265 2.416 0.779 3.039 0.514 0.608 1.231 0.92 2.135 0.92 0.92 0 1.637-0.296 2.151-0.904s0.764-1.683 0.764-3.242c0-1.309-0.265-2.276-0.795-2.868-0.53-0.608-1.247-0.904-2.151-0.904-0.795-0.031-1.559 0.312-2.089 0.92s-0.795 1.621-0.795 3.039zM61.148 24.799c0-2.276 0.639-4.053 1.902-5.315s3.039-1.902 5.3-1.902c2.322 0 4.115 0.623 5.362 1.87s1.886 2.993 1.886 5.237c0 1.637-0.281 2.962-0.826 4.006-0.53 1.029-1.356 1.87-2.369 2.432-1.044 0.577-2.338 0.873-3.881 0.873-1.574 0-2.868-0.249-3.897-0.748-1.060-0.53-1.933-1.356-2.51-2.369-0.639-1.091-0.966-2.447-0.966-4.084zM65.45 24.814c0 1.403 0.265 2.416 0.779 3.039 0.514 0.608 1.231 0.92 2.135 0.92 0.92 0 1.637-0.296 2.151-0.904s0.764-1.683 0.764-3.242c0-1.309-0.265-2.276-0.795-2.868-0.53-0.608-1.247-0.904-2.151-0.904-0.795-0.031-1.574 0.312-2.089 0.92-0.53 0.608-0.795 1.621-0.795 3.039z"></path>
<path fill="#000" style="fill: var(--color1, #000)" d="M75.145 17.831h4.302v10.506h6.718v3.429h-11.036v-13.935z"></path>
<path fill="#fff" style="fill: var(--color2, #fff)" d="M46.656 8.813l22.382-16.866 15.487 20.552-22.382 16.866z"></path>
<path fill="#fff" style="fill: var(--color2, #fff)" d="M73.386 4.669c2.684 3.561 1.348 9.094-2.983 12.358s-10.018 3.023-12.701-0.538c-2.684-3.561-1.348-9.094 2.983-12.358s10.018-3.023 12.701 0.538z"></path>
<path fill="#fff" style="fill: var(--color2, #fff)" d="M52.888 10.185l15.672-11.81 9.728 12.909-15.672 11.81z"></path>
<path fill="#fff" style="fill: var(--color2, #fff); stroke: var(--color1, #000)" stroke="#000" stroke-linejoin="miter" stroke-linecap="butt" stroke-miterlimit="10" stroke-width="0.6235" d="M73.386 4.669c2.684 3.561 1.348 9.094-2.983 12.358s-10.018 3.023-12.701-0.538c-2.684-3.561-1.348-9.094 2.983-12.358s10.018-3.023 12.701 0.538z"></path>
<path fill="none" stroke="#000" style="stroke: var(--color1, #000)" stroke-linejoin="miter" stroke-linecap="butt" stroke-miterlimit="10" stroke-width="0.6235" d="M52.888 10.185l15.672-11.81 9.728 12.909-15.672 11.81z"></path>
<path fill="none" stroke="#000" style="stroke: var(--color1, #000)" stroke-linejoin="miter" stroke-linecap="butt" stroke-miterlimit="10" stroke-width="0.6235" d="M46.656 8.813l22.382-16.866 15.487 20.552-22.382 16.866z"></path>
<path fill="none" stroke="#000" style="stroke: var(--color1, #000)" stroke-linejoin="miter" stroke-linecap="butt" stroke-miterlimit="10" stroke-width="0.6235" d="M73.386 4.669c2.684 3.561 1.348 9.094-2.983 12.358s-10.018 3.023-12.701-0.538c-2.684-3.561-1.348-9.094 2.983-12.358s10.018-3.023 12.701 0.538z"></path>
<path fill="#000" style="fill: var(--color1, #000)" d="M61.163 9.555l1.559-1.091 1.917 2.728c0.327 0.436 0.577 0.904 0.764 1.418 0.109 0.39 0.078 0.811-0.078 1.185-0.203 0.468-0.53 0.857-0.966 1.138-0.514 0.358-0.951 0.561-1.325 0.623-0.358 0.062-0.733 0-1.075-0.156-0.374-0.187-0.701-0.452-0.951-0.795l1.34-1.247c0.109 0.171 0.249 0.327 0.405 0.452 0.109 0.078 0.234 0.125 0.374 0.125 0.109 0 0.218-0.047 0.296-0.109 0.156-0.094 0.265-0.281 0.249-0.468-0.047-0.265-0.156-0.53-0.327-0.733l-2.182-3.071zM65.839 11.285l1.418-1.122c0.156 0.187 0.359 0.327 0.577 0.405 0.312 0.094 0.639 0.031 0.904-0.171 0.187-0.125 0.343-0.296 0.405-0.514 0.094-0.281-0.062-0.592-0.343-0.686-0.047-0.016-0.094-0.031-0.14-0.031-0.187-0.016-0.514 0.062-0.998 0.265-0.795 0.327-1.418 0.452-1.886 0.405-0.452-0.047-0.873-0.281-1.122-0.67-0.187-0.265-0.281-0.577-0.296-0.888 0-0.359 0.094-0.717 0.296-1.013 0.296-0.421 0.655-0.779 1.091-1.060 0.655-0.452 1.231-0.67 1.73-0.67s0.966 0.234 1.403 0.717l-1.403 1.107c-0.281-0.359-0.811-0.436-1.169-0.156l-0.047 0.047c-0.156 0.094-0.265 0.234-0.327 0.405-0.047 0.125-0.016 0.265 0.062 0.374 0.062 0.078 0.156 0.14 0.265 0.14 0.125 0.016 0.343-0.047 0.655-0.187 0.779-0.327 1.372-0.514 1.777-0.577 0.343-0.062 0.701-0.031 1.029 0.109 0.296 0.125 0.546 0.343 0.717 0.608 0.218 0.312 0.343 0.686 0.359 1.075 0.016 0.405-0.094 0.795-0.312 1.138-0.281 0.421-0.639 0.779-1.060 1.060-0.857 0.592-1.559 0.842-2.12 0.748-0.608-0.094-1.107-0.405-1.465-0.857z"></path>
</symbol>
<symbol id="icon-github" viewBox="0 0 118 32">
<path d="M22.721 13.655h-9.913c-0.256 0-0.463 0.208-0.463 0.464v4.847c0 0.256 0.208 0.464 0.463 0.464h3.867v6.022s-0.868 0.296-3.269 0.296c-2.832 0-6.789-1.035-6.789-9.735 0-8.702 4.12-9.847 7.988-9.847 3.348 0 4.791 0.589 5.708 0.873 0.288 0.088 0.555-0.199 0.555-0.455l1.106-4.683c0-0.12-0.041-0.264-0.177-0.362-0.373-0.266-2.647-1.538-8.391-1.538-6.618 0-13.406 2.816-13.406 16.351s7.772 15.552 14.322 15.552c5.423 0 8.712-2.317 8.712-2.317 0.136-0.075 0.15-0.264 0.15-0.351v-15.116c0-0.256-0.207-0.464-0.463-0.464zM73.783 1.694c0-0.258-0.204-0.466-0.46-0.466h-5.582c-0.256 0.001-0.462 0.208-0.462 0.464 0 0.001 0 0.001 0 0.002v-0l0.001 10.787h-8.7v-10.787c0-0.258-0.205-0.466-0.461-0.466h-5.582c-0.255 0.001-0.461 0.208-0.461 0.464 0 0.001 0 0.002 0 0.002v-0 29.208c0 0.258 0.207 0.467 0.461 0.467h5.582c0.255 0 0.46-0.209 0.46-0.467v-12.493h8.701l-0.015 12.493c0 0.258 0.207 0.467 0.462 0.467h5.595c0.256 0 0.46-0.209 0.46-0.467v-29.208zM33.236 5.599c0-2.010-1.611-3.634-3.599-3.634-1.986 0-3.599 1.624-3.599 3.634 0 2.007 1.613 3.636 3.599 3.636 1.988 0 3.599-1.629 3.599-3.636zM32.793 24.756v-13.482c0-0.256-0.206-0.465-0.462-0.465h-5.564c-0.255 0-0.483 0.263-0.483 0.519v19.316c0 0.568 0.354 0.736 0.811 0.736h5.013c0.55 0 0.685-0.27 0.685-0.746v-5.879zM95.116 10.809h-5.539c-0.254 0-0.461 0.209-0.461 0.467v14.322s-1.407 1.030-3.404 1.030c-1.997 0-2.527-0.906-2.527-2.862v-12.489c0-0.258-0.207-0.467-0.461-0.467h-5.622c-0.254 0-0.462 0.21-0.462 0.467v13.435c0 5.808 3.238 7.229 7.691 7.229 3.654 0 6.599-2.018 6.599-2.018s0.14 1.064 0.204 1.19c0.064 0.126 0.229 0.253 0.407 0.253l3.576-0.016c0.254 0 0.462-0.21 0.462-0.466l-0.002-19.607c0-0.258-0.207-0.467-0.462-0.467zM107.878 26.638c-1.921-0.058-3.224-0.93-3.224-0.93v-9.25s1.286-0.788 2.863-0.929c1.995-0.179 3.917 0.424 3.917 5.182 0 5.018-0.867 6.008-3.555 5.927zM110.063 10.181c-3.146 0-5.286 1.404-5.286 1.404v-9.891c0-0.001 0-0.002 0-0.003 0-0.255-0.206-0.461-0.46-0.463h-5.598c-0.255 0.001-0.461 0.208-0.461 0.463 0 0.001 0 0.002 0 0.003v-0 29.208c0 0.258 0.207 0.467 0.462 0.467h3.884c0.175 0 0.307-0.090 0.405-0.248 0.096-0.157 0.236-1.347 0.236-1.347s2.289 2.169 6.622 2.169c5.087 0 8.004-2.58 8.004-11.583s-4.659-10.179-7.807-10.179zM48.858 10.758h-4.187l-0.006-5.531c0-0.209-0.108-0.314-0.35-0.314h-5.706c-0.222 0-0.341 0.098-0.341 0.311v5.716s-2.859 0.69-3.053 0.746c-0.195 0.058-0.334 0.235-0.334 0.445 0 0 0 0 0 0v0 3.592c0 0.258 0.206 0.467 0.462 0.467h2.925v8.641c0 6.418 4.502 7.049 7.54 7.049 1.388 0 3.049-0.446 3.323-0.547 0.166-0.061 0.262-0.233 0.262-0.419l0.005-3.951c0-0.258-0.218-0.466-0.463-0.466-0.244 0-0.868 0.099-1.511 0.099-2.057 0-2.753-0.956-2.753-2.194l-0-8.212h4.187c0.255-0.001 0.462-0.208 0.462-0.464 0-0.001 0-0.002 0-0.003v0-4.499c0-0.258-0.206-0.466-0.462-0.466z"></path>
</symbol>
<symbol id="icon-github-logo" viewBox="0 0 32 32">
<path d="M29.854 8.36c-1.431-2.451-3.372-4.392-5.823-5.823s-5.128-2.146-8.031-2.146c-2.903 0-5.58 0.715-8.031 2.146s-4.392 3.371-5.823 5.823c-1.431 2.451-2.146 5.128-2.146 8.031 0 3.486 1.017 6.622 3.052 9.406s4.663 4.712 7.885 5.781c0.375 0.070 0.653 0.021 0.833-0.146s0.271-0.375 0.271-0.625c0-0.042-0.004-0.416-0.011-1.125-0.006-0.544-0.010-1.195-0.011-1.847v-0.007l-0.479 0.083c-0.306 0.056-0.691 0.080-1.156 0.073s-0.948-0.055-1.448-0.146c-0.5-0.090-0.965-0.298-1.396-0.625s-0.736-0.754-0.916-1.281l-0.208-0.479c-0.139-0.319-0.357-0.674-0.656-1.062s-0.601-0.653-0.906-0.792l-0.146-0.104c-0.097-0.069-0.187-0.153-0.271-0.25s-0.146-0.194-0.187-0.292c-0.042-0.097-0.007-0.177 0.104-0.24s0.312-0.093 0.604-0.093l0.417 0.062c0.278 0.056 0.621 0.222 1.031 0.5s0.746 0.639 1.010 1.083c0.32 0.57 0.705 1.004 1.156 1.302s0.906 0.448 1.364 0.448 0.854-0.035 1.188-0.104c0.333-0.069 0.646-0.174 0.937-0.313 0.125-0.931 0.465-1.646 1.021-2.146-0.792-0.083-1.503-0.208-2.135-0.375s-1.285-0.438-1.958-0.813c-0.674-0.375-1.233-0.84-1.677-1.396s-0.809-1.285-1.094-2.188c-0.285-0.903-0.427-1.944-0.427-3.125 0-1.681 0.549-3.111 1.646-4.292-0.514-1.264-0.465-2.68 0.146-4.25 0.403-0.125 1-0.031 1.792 0.281s1.371 0.58 1.74 0.802c0.368 0.222 0.663 0.41 0.885 0.562 1.292-0.361 2.625-0.541 4-0.541s2.708 0.181 4 0.541l0.792-0.5c0.541-0.333 1.181-0.639 1.916-0.917s1.299-0.354 1.688-0.229c0.625 1.569 0.68 2.986 0.166 4.25 1.097 1.181 1.646 2.611 1.646 4.292 0 1.18-0.143 2.225-0.427 3.135s-0.652 1.639-1.104 2.188c-0.452 0.549-1.014 1.011-1.688 1.385s-1.327 0.646-1.958 0.813c-0.632 0.167-1.344 0.292-2.135 0.375 0.722 0.625 1.083 1.611 1.083 2.958v4.395c0 0.25 0.087 0.458 0.261 0.625s0.448 0.215 0.823 0.146c3.223-1.069 5.851-2.996 7.886-5.781s3.052-5.92 3.052-9.406c-0.001-2.902-0.716-5.579-2.146-8.030z"></path>
</symbol>
<symbol id="icon-github-icon-octocat" viewBox="0 0 33 32">
<path d="M16.384 0c-9.048 0-16.384 7.335-16.384 16.384 0 7.239 4.695 13.38 11.204 15.547 0.819 0.152 1.12-0.355 1.12-0.788 0-0.391-0.015-1.681-0.022-3.050-4.558 0.991-5.52-1.933-5.52-1.933-0.745-1.894-1.819-2.397-1.819-2.397-1.486-1.017 0.112-0.996 0.112-0.996 1.645 0.115 2.511 1.688 2.511 1.688 1.461 2.505 3.833 1.781 4.768 1.362 0.147-1.059 0.572-1.782 1.040-2.191-3.639-0.414-7.465-1.819-7.465-8.097 0-1.789 0.64-3.25 1.688-4.398-0.17-0.413-0.731-2.079 0.159-4.336 0 0 1.376-0.44 4.507 1.679 1.307-0.363 2.708-0.545 4.101-0.551 1.392 0.006 2.795 0.188 4.104 0.551 3.127-2.12 4.501-1.679 4.501-1.679 0.892 2.257 0.331 3.923 0.161 4.336 1.050 1.147 1.686 2.609 1.686 4.398 0 6.293-3.833 7.678-7.481 8.084 0.588 0.508 1.111 1.506 1.111 3.034 0 2.192-0.019 3.956-0.019 4.496 0 0.436 0.295 0.947 1.125 0.786 6.506-2.169 11.195-8.308 11.195-15.544 0-9.049-7.336-16.384-16.384-16.384zM6.136 23.34c-0.036 0.081-0.164 0.106-0.281 0.050-0.119-0.053-0.186-0.164-0.147-0.246 0.035-0.084 0.164-0.107 0.282-0.051 0.119 0.053 0.187 0.166 0.146 0.247zM6.942 24.059c-0.078 0.072-0.231 0.039-0.335-0.076-0.107-0.114-0.127-0.267-0.048-0.34 0.081-0.072 0.229-0.039 0.336 0.076 0.107 0.116 0.128 0.267 0.046 0.34zM7.495 24.979c-0.1 0.070-0.265 0.004-0.366-0.141-0.1-0.146-0.1-0.32 0.002-0.39s0.263-0.007 0.366 0.138c0.1 0.148 0.1 0.323-0.002 0.394zM8.43 26.044c-0.090 0.099-0.281 0.072-0.421-0.063-0.143-0.132-0.183-0.32-0.093-0.419s0.283-0.071 0.424 0.063c0.142 0.132 0.186 0.321 0.090 0.419zM9.639 26.404c-0.040 0.128-0.224 0.187-0.409 0.132-0.185-0.056-0.307-0.206-0.269-0.336 0.039-0.129 0.224-0.19 0.411-0.132 0.185 0.056 0.307 0.205 0.268 0.336zM11.014 26.557c0.005 0.135-0.153 0.247-0.348 0.25-0.196 0.004-0.354-0.105-0.357-0.238 0-0.136 0.154-0.247 0.35-0.251 0.195-0.004 0.354 0.105 0.354 0.239zM12.365 26.505c0.023 0.132-0.112 0.267-0.306 0.303-0.19 0.035-0.366-0.047-0.39-0.177-0.024-0.135 0.114-0.271 0.304-0.306 0.194-0.034 0.367 0.046 0.392 0.18z"></path>
</symbol>
</defs>
</svg>
